<svg width="156" height="152" viewBox="0 0 156 152" fill="none" xmlns="http://www.w3.org/2000/svg">
<path d="M78 76C88.3434 76 98.2632 71.9964 105.577 64.8701C112.891 57.7437 117 48.0782 117 38C117 27.9218 112.891 18.2563 105.577 11.1299C98.2632 4.00356 88.3434 0 78 0C67.6566 0 57.7368 4.00356 50.4228 11.1299C43.1089 18.2563 39 27.9218 39 38C39 48.0782 43.1089 57.7437 50.4228 64.8701C57.7368 71.9964 67.6566 76 78 76ZM104 38C104 44.7188 101.261 51.1625 96.3848 55.9134C91.5088 60.6643 84.8956 63.3333 78 63.3333C71.1044 63.3333 64.4912 60.6643 59.6152 55.9134C54.7393 51.1625 52 44.7188 52 38C52 31.2812 54.7393 24.8375 59.6152 20.0866C64.4912 15.3357 71.1044 12.6667 78 12.6667C84.8956 12.6667 91.5088 15.3357 96.3848 20.0866C101.261 24.8375 104 31.2812 104 38ZM156 139.333C156 152 143 152 143 152H78H13C13 152 0 152 0 139.333C0 126.667 13 88.6667 78 88.6667C143 88.6667 156 126.667 156 139.333ZM143 139.283C142.987 136.167 140.998 126.793 132.184 118.205C123.708 109.947 107.757 101.333 78 101.333C48.243 101.333 32.292 109.947 23.816 118.205C15.002 126.793 13.026 136.167 13 139.283H143Z" fill="black"/>
</svg>
