<svg width="14" height="19" viewBox="0 0 14 19" fill="none" xmlns="http://www.w3.org/2000/svg">
<path fill-rule="evenodd" clip-rule="evenodd" d="M0.293712 0.214666C0.38658 0.14662 0.496903 0.0926328 0.618362 0.0557969C0.739821 0.018961 0.870031 0 1.00153 0C1.13303 0 1.26324 0.018961 1.3847 0.0557969C1.50616 0.0926328 1.61648 0.14662 1.70935 0.214666L13.7063 8.98287C13.7994 9.05074 13.8733 9.13138 13.9237 9.22015C13.9741 9.30892 14 9.40408 14 9.50019C14 9.5963 13.9741 9.69147 13.9237 9.78024C13.8733 9.86901 13.7994 9.94964 13.7063 10.0175L1.70935 18.7857C1.52163 18.9229 1.26702 19 1.00153 19C0.736048 19 0.481437 18.9229 0.293712 18.7857C0.105987 18.6485 0.000523434 18.4624 0.000523434 18.2684C0.000523434 18.0744 0.105987 17.8883 0.293712 17.7511L11.5848 9.50019L5.93927 5.37475L0.293712 1.24931C0.200609 1.18144 0.126742 1.10081 0.0763422 1.01204C0.0259421 0.923266 0 0.8281 0 0.73199C0 0.63588 0.0259421 0.540714 0.0763422 0.451943C0.126742 0.363172 0.200609 0.28254 0.293712 0.214666Z" fill="#FF4473"/>
</svg>
