<svg width="32" height="30" viewBox="0 0 32 30" fill="none" xmlns="http://www.w3.org/2000/svg">
<path d="M15 0.5H17C25.0081 0.5 31.5 6.99187 31.5 15C31.5 23.0081 25.0081 29.5 17 29.5H15C6.99187 29.5 0.5 23.0081 0.5 15C0.5 6.99187 6.99187 0.5 15 0.5Z" fill="white" stroke="#FF4473"/>
<path d="M16.972 5.05184C15.8965 4.78297 14.8975 5.59634 14.8255 6.64934C14.7445 7.83172 14.5667 8.91735 14.344 9.5631C14.2034 9.9681 13.8051 10.7027 13.174 11.407C12.5474 12.1078 11.7317 12.7322 10.7766 12.9932C10.0206 13.1991 9.25 13.8538 9.25 14.8101V19.3112C9.25 20.2618 10.0172 20.9582 10.879 21.0493C12.0827 21.1776 12.6385 21.5162 13.2055 21.8627L13.2595 21.8965C13.5655 22.0821 13.9097 22.288 14.3507 22.441C14.7974 22.594 15.3194 22.6851 16 22.6851H19.9375C20.9916 22.6851 21.7364 22.1485 22.1132 21.4881C22.2954 21.1765 22.3938 20.823 22.399 20.4621C22.399 20.2911 22.3731 20.1111 22.3124 19.9401C22.5385 19.6442 22.7399 19.2898 22.8614 18.9265C22.9851 18.5552 23.0549 18.0692 22.8659 17.6338C22.9435 17.4876 23.0009 17.3312 23.0447 17.1805C23.1314 16.8767 23.1719 16.5415 23.1719 16.2163C23.1719 15.8923 23.1314 15.5582 23.0447 15.2533C23.0063 15.1129 22.9543 14.9765 22.8895 14.8461C23.0865 14.5658 23.2132 14.2423 23.259 13.9028C23.3049 13.5633 23.2684 13.2178 23.1527 12.8953C22.921 12.2293 22.3855 11.6578 21.8027 11.4643C20.8499 11.1471 19.7744 11.1538 18.9722 11.227C18.8057 11.242 18.6396 11.2608 18.4739 11.2832C18.8626 9.61173 18.8386 7.87076 18.4041 6.21059C18.3283 5.94463 18.1827 5.70377 17.9826 5.5129C17.7824 5.32204 17.5349 5.18811 17.2656 5.12497L16.972 5.05184ZM19.9375 21.5612H16C15.4262 21.5612 15.0291 21.4836 14.7175 21.3767C14.4014 21.2676 14.1482 21.1202 13.8445 20.9346L13.7995 20.9076C13.1751 20.5262 12.4517 20.0852 10.9982 19.9311C10.6236 19.8906 10.375 19.6048 10.375 19.3123V14.8101C10.375 14.5243 10.6292 14.1992 11.0725 14.0788C12.3044 13.7413 13.2966 12.9583 14.0132 12.1573C14.7276 11.3586 15.2102 10.498 15.406 9.93209C15.6794 9.14459 15.8639 7.94309 15.9482 6.72584C15.9764 6.31859 16.3532 6.05759 16.6986 6.14309L16.9934 6.21734C17.1734 6.26234 17.2836 6.37822 17.3174 6.50422C17.7768 8.25474 17.7202 10.1008 17.1542 11.8198C17.1222 11.9155 17.1165 12.0179 17.1376 12.1165C17.1588 12.2151 17.206 12.3062 17.2745 12.3803C17.3429 12.4543 17.43 12.5086 17.5266 12.5375C17.6232 12.5664 17.7258 12.5687 17.8236 12.5443L17.827 12.5432L17.8427 12.5398L17.908 12.5241C18.2927 12.4426 18.6819 12.3837 19.0735 12.3475C19.8194 12.28 20.7126 12.2867 21.4472 12.532C21.6441 12.5972 21.9535 12.8695 22.0885 13.2632C22.2089 13.6097 22.1864 14.017 21.7892 14.413L21.3921 14.8101L21.7892 15.2083C21.8376 15.2567 21.9074 15.367 21.9625 15.5627C22.0165 15.7506 22.0469 15.979 22.0469 16.2163C22.0469 16.4548 22.0165 16.6821 21.9625 16.8711C21.9062 17.0668 21.8376 17.1771 21.7892 17.2255L21.3921 17.6226L21.7892 18.0208C21.8421 18.0737 21.9119 18.22 21.7949 18.5698C21.6737 18.9095 21.4798 19.2186 21.2267 19.4755L20.8296 19.8726L21.2267 20.2708C21.2335 20.2765 21.2729 20.3271 21.2729 20.4621C21.2663 20.6269 21.2196 20.7875 21.1367 20.9301C20.9511 21.2541 20.5709 21.5612 19.9375 21.5612Z" fill="#FF0000"/>
</svg>
