<svg width="32" height="30" viewBox="0 0 32 30" fill="none" xmlns="http://www.w3.org/2000/svg">
<path d="M15 0.5H17C25.0081 0.5 31.5 6.99187 31.5 15C31.5 23.0081 25.0081 29.5 17 29.5H15C6.99187 29.5 0.5 23.0081 0.5 15C0.5 6.99187 6.99187 0.5 15 0.5Z" fill="white" stroke="#FF4473"/>
<path d="M16.6055 6.0469C15.6855 5.80365 14.831 6.53952 14.7694 7.49219C14.7001 8.5619 14.548 9.54409 14.3575 10.1283C14.2372 10.4947 13.8965 11.1593 13.3567 11.7965C12.8206 12.4306 12.1229 12.9955 11.3059 13.2316C10.6592 13.4179 10 14.0102 10 14.8754V18.9476C10 19.8076 10.6563 20.4377 11.3935 20.5201C12.4232 20.6361 12.8986 20.9425 13.3836 21.256L13.4298 21.2865C13.6916 21.4545 13.986 21.6407 14.3633 21.7791C14.7453 21.9176 15.1918 22 15.7741 22H19.1423C20.044 22 20.6811 21.5145 21.0034 20.9171C21.1593 20.6351 21.2435 20.3153 21.2479 19.9888C21.2479 19.8341 21.2257 19.6713 21.1738 19.5166C21.3672 19.2489 21.5395 18.9283 21.6434 18.5995C21.7493 18.2636 21.8089 17.8239 21.6473 17.43C21.7137 17.2977 21.7627 17.1563 21.8003 17.0199C21.8744 16.7451 21.909 16.4418 21.909 16.1476C21.909 15.8545 21.8744 15.5522 21.8003 15.2764C21.7674 15.1493 21.7229 15.0259 21.6675 14.9079C21.836 14.6544 21.9444 14.3617 21.9836 14.0545C22.0228 13.7474 21.9916 13.4348 21.8927 13.1431C21.6944 12.5405 21.2363 12.0235 20.7378 11.8484C19.9227 11.5614 19.0027 11.5675 18.3166 11.6336C18.1741 11.6473 18.032 11.6642 17.8903 11.6845C18.2227 10.1723 18.2023 8.59723 17.8306 7.09525C17.7657 6.85462 17.6412 6.63671 17.47 6.46403C17.2988 6.29136 17.087 6.17019 16.8567 6.11306L16.6055 6.0469ZM17.9836 18.129V18.8041C17.4928 18.8041 17.1675 18.9008 16.901 18.8041C16.6306 18.7054 14.9368 18.972 14.677 18.8041L13.9836 19.1613C13.4495 18.8163 12.7388 19.6478 11.4955 19.5084C11.175 19.4718 10.9623 19.2132 10.9623 18.9486V14.8754C19.2336 15.7853 11.1798 14.3227 11.559 14.2138C12.6128 13.9084 13.4616 13.2 14.0746 12.4754C14.6857 11.7527 16.2336 11.6336 16.9836 12.4516C17.2174 11.7391 16.1614 14.069 16.2336 12.9677C16.2576 12.5993 15.2659 12.0814 16.3717 7.03418L14.8281 12.0814C14.9821 12.1221 17.8306 9.6129 16.901 7.36089C17.294 8.94462 13.8407 11.9206 13.3567 13.4759C13.3293 13.5624 18.3145 15.2896 16.9836 12.4516C17.0017 12.5408 17.4114 12.0144 17.47 12.0814C9.18385 10.7115 10.4174 19.4401 10.5 19.4663C10.5826 19.4924 21.8184 22.626 20.6185 17.1746L21.3641 17.7802L20.7263 16.74L20.8265 16.8856C21.1556 16.8119 19.1423 11.8484 17.465 13.4627C18.103 13.4016 16.8416 14.8554 17.47 15.0772C17.6384 15.1363 18.2011 16.2244 18.3166 16.5806C18.4196 16.8941 18.6563 13.1176 18.3166 13.4759L17.4836 16.5806L19.2336 16.3226C17.9225 17.8269 19.6864 16.5629 19.7336 16.74C19.7798 16.91 19.4152 17.5654 19.4152 17.7802C19.4152 17.996 20.0518 16.569 20.0056 16.74C19.9575 16.9171 20.7677 17.0168 20.7263 17.0606L20.3866 17.4199L20.7263 17.7802C20.7715 17.828 19.8337 16.744 19.7336 17.0606C19.63 17.3679 20.4616 18.8638 20.2451 19.0962L19.9054 19.4555L16.9836 18.3871C16.9893 18.3922 16.9836 19.8667 16.9836 19.9888C13.6 19.4663 20.239 20.2832 20.1681 20.4122C17.902 18.805 18.5254 18.129 17.9836 18.129Z" fill="#FF4473"/>
<path d="M16.722 5.05184C15.6465 4.78297 14.6475 5.59634 14.5755 6.64934C14.4945 7.83172 14.3167 8.91735 14.094 9.5631C13.9534 9.9681 13.5551 10.7027 12.924 11.407C12.2974 12.1078 11.4818 12.7322 10.5266 12.9932C9.77063 13.1991 9 13.8538 9 14.8101V19.3112C9 20.2618 9.76725 20.9582 10.629 21.0493C11.8328 21.1776 12.3885 21.5162 12.9555 21.8627L13.0095 21.8965C13.3155 22.0821 13.6598 22.288 14.1008 22.441C14.5474 22.594 15.0694 22.6851 15.75 22.6851H19.6875C20.7416 22.6851 21.4864 22.1485 21.8633 21.4881C22.0454 21.1765 22.1438 20.823 22.149 20.4621C22.149 20.2911 22.1231 20.1111 22.0624 19.9401C22.2885 19.6442 22.4899 19.2898 22.6114 18.9265C22.7351 18.5552 22.8049 18.0692 22.6159 17.6338C22.6935 17.4876 22.7509 17.3312 22.7947 17.1805C22.8814 16.8767 22.9219 16.5415 22.9219 16.2163C22.9219 15.8923 22.8814 15.5582 22.7947 15.2533C22.7563 15.1129 22.7043 14.9765 22.6395 14.8461C22.8365 14.5658 22.9632 14.2423 23.009 13.9028C23.0549 13.5633 23.0184 13.2178 22.9027 12.8953C22.671 12.2293 22.1355 11.6578 21.5528 11.4643C20.5999 11.1471 19.5244 11.1538 18.7223 11.227C18.5557 11.242 18.3896 11.2608 18.2239 11.2832C18.6126 9.61173 18.5886 7.87076 18.1541 6.21059C18.0783 5.94463 17.9327 5.70377 17.7326 5.5129C17.5324 5.32204 17.2849 5.18811 17.0156 5.12497L16.722 5.05184ZM19.6875 21.5612H15.75C15.1762 21.5612 14.7791 21.4836 14.4675 21.3767C14.1514 21.2676 13.8983 21.1202 13.5945 20.9346L13.5495 20.9076C12.9251 20.5262 12.2017 20.0852 10.7482 19.9311C10.3736 19.8906 10.125 19.6048 10.125 19.3123V14.8101C10.125 14.5243 10.3792 14.1992 10.8225 14.0788C12.0544 13.7413 13.0466 12.9583 13.7633 12.1573C14.4776 11.3586 14.9603 10.498 15.156 9.93209C15.4294 9.14459 15.6139 7.94309 15.6983 6.72584C15.7264 6.31859 16.1033 6.05759 16.4486 6.14309L16.7434 6.21734C16.9234 6.26234 17.0336 6.37822 17.0674 6.50422C17.5268 8.25474 17.4702 10.1008 16.9043 11.8198C16.8722 11.9155 16.8665 12.0179 16.8876 12.1165C16.9088 12.2151 16.956 12.3062 17.0245 12.3803C17.0929 12.4543 17.18 12.5086 17.2766 12.5375C17.3732 12.5664 17.4758 12.5687 17.5736 12.5443L17.577 12.5432L17.5927 12.5398L17.658 12.5241C18.0427 12.4426 18.4319 12.3837 18.8235 12.3475C19.5694 12.28 20.4626 12.2867 21.1972 12.532C21.3941 12.5972 21.7035 12.8695 21.8385 13.2632C21.9589 13.6097 21.9364 14.017 21.5392 14.413L21.1421 14.8101L21.5392 15.2083C21.5876 15.2567 21.6574 15.367 21.7125 15.5627C21.7665 15.7506 21.7969 15.979 21.7969 16.2163C21.7969 16.4548 21.7665 16.6821 21.7125 16.8711C21.6563 17.0668 21.5876 17.1771 21.5392 17.2255L21.1421 17.6226L21.5392 18.0208C21.5921 18.0737 21.6619 18.22 21.5449 18.5698C21.4237 18.9095 21.2298 19.2186 20.9767 19.4755L20.5796 19.8726L20.9767 20.2708C20.9835 20.2765 21.0229 20.3271 21.0229 20.4621C21.0163 20.6269 20.9696 20.7875 20.8867 20.9301C20.7011 21.2541 20.3209 21.5612 19.6875 21.5612Z" fill="#FF4473"/>
</svg>
