<svg width="26" height="22" viewBox="0 0 26 22" fill="none" xmlns="http://www.w3.org/2000/svg">
<path d="M12.1377 0.306625C11.3349 0.718264 10.6301 2.17958 10.8063 3.04402C10.865 3.37333 11.237 4.01138 11.6091 4.46418C12.079 5.06105 12.2748 5.49328 12.2748 5.98724C12.2748 6.78994 12.1181 6.95459 9.96433 8.60115L8.535 9.69199L6.63574 8.49824C5.598 7.81904 4.48194 7.03692 4.16866 6.74877L3.58126 6.21364L4.10992 5.55502C5.08892 4.34069 4.67774 2.40598 3.30714 1.7062C2.09318 1.10932 0.546361 1.95318 0.115601 3.45566C-0.0606187 4.0937 -0.0410387 4.34069 0.213501 4.87582C0.526781 5.51386 1.40788 6.1519 1.9757 6.1519C2.13234 6.1519 2.34772 6.31655 2.4652 6.50179C2.62184 6.85169 3.62042 10.6799 5.32388 17.5749C5.71548 19.1597 6.12666 20.8062 6.22456 21.2179L6.42036 22H12.9601H19.4998L19.7739 20.9092C19.9501 20.3329 20.8312 16.9574 21.7711 13.4585C23.6899 6.19306 23.7095 6.1519 24.1402 6.1519C24.6493 6.1519 25.5304 5.51386 25.7654 4.97873C26.5486 3.16751 25.2759 1.41805 23.357 1.68562C21.8102 1.91202 21.1837 3.6409 22.006 5.43153C22.3193 6.13132 22.3193 6.17248 21.9473 6.68703C21.6144 7.16041 18.09 9.65083 17.7767 9.65083C17.6201 9.65083 15.0356 7.69554 14.4873 7.13983C13.802 6.46063 13.8803 5.45211 14.7223 4.48476C15.3097 3.80556 15.4076 3.53799 15.4076 2.67355C15.4076 1.50038 14.9181 0.697681 13.9195 0.265461C13.0971 -0.105015 12.9209 -0.0844326 12.1377 0.306625Z" fill="#FF4473"/>
<path d="M12.1377 0.306625C11.3349 0.718264 10.6301 2.17958 10.8063 3.04402C10.865 3.37333 11.237 4.01138 11.6091 4.46418C12.079 5.06105 12.2748 5.49328 12.2748 5.98724C12.2748 6.78994 12.1181 6.95459 9.96433 8.60115L8.535 9.69199L6.63574 8.49824C5.598 7.81904 4.48194 7.03692 4.16866 6.74877L3.58126 6.21364L4.10992 5.55502C5.08892 4.34069 4.67774 2.40598 3.30714 1.7062C2.09318 1.10932 0.546361 1.95318 0.115601 3.45566C-0.0606187 4.0937 -0.0410387 4.34069 0.213501 4.87582C0.526781 5.51386 1.40788 6.1519 1.9757 6.1519C2.13234 6.1519 2.34772 6.31655 2.4652 6.50179C2.62184 6.85169 3.62042 10.6799 5.32388 17.5749C5.71548 19.1597 6.12666 20.8062 6.22456 21.2179L6.42036 22H12.9601H19.4998L19.7739 20.9092C19.9501 20.3329 20.8312 16.9574 21.7711 13.4585C23.6899 6.19306 23.7095 6.1519 24.1402 6.1519C24.6493 6.1519 25.5304 5.51386 25.7654 4.97873C26.5486 3.16751 25.2759 1.41805 23.357 1.68562C21.8102 1.91202 21.1837 3.6409 22.006 5.43153C22.3193 6.13132 22.3193 6.17248 21.9473 6.68703C21.6144 7.16041 18.09 9.65083 17.7767 9.65083C17.6201 9.65083 15.0356 7.69554 14.4873 7.13983C13.802 6.46063 13.8803 5.45211 14.7223 4.48476C15.3097 3.80556 15.4076 3.53799 15.4076 2.67355C15.4076 1.50038 14.9181 0.697681 13.9195 0.265461C13.0971 -0.105015 12.9209 -0.0844326 12.1377 0.306625Z" fill="#FF4473"/>
</svg>
