<svg width="24" height="31" viewBox="0 0 24 31" fill="none" xmlns="http://www.w3.org/2000/svg">
<path d="M13.2111 0.090878C11.3711 -0.38043 9.66194 1.04533 9.53876 2.89112C9.40018 4.96369 9.09608 6.86667 8.71499 7.9986C8.4744 8.70852 7.79306 9.99623 6.71331 11.2307C5.64126 12.4593 4.24586 13.5537 2.6118 14.0112C1.31841 14.3721 0 15.5198 0 17.196V25.086C0 26.7523 1.31264 27.973 2.78695 28.1327C4.84637 28.3575 5.79716 28.9511 6.7672 29.5585L6.85959 29.6176C7.38311 29.943 7.97206 30.3039 8.72654 30.5721C9.49064 30.8403 10.3837 31 11.5481 31H18.2845C20.088 31 21.3621 30.0594 22.0069 28.9018C22.3185 28.3555 22.4869 27.736 22.4958 27.1033C22.4958 26.8036 22.4515 26.4881 22.3476 26.1883C22.7344 25.6697 23.0789 25.0485 23.2868 24.4115C23.4985 23.7608 23.6179 22.9089 23.2945 22.1457C23.4273 21.8894 23.5255 21.6153 23.6005 21.351C23.7487 20.8186 23.818 20.2309 23.818 19.661C23.818 19.0931 23.7487 18.5074 23.6005 17.973C23.5348 17.7268 23.4458 17.4877 23.3349 17.2591C23.6719 16.7678 23.8888 16.2008 23.9671 15.6057C24.0455 15.0106 23.9832 14.4049 23.7853 13.8397C23.3888 12.6722 22.4727 11.6705 21.4757 11.3313C19.8455 10.7752 18.0055 10.787 16.6332 10.9152C16.3483 10.9416 16.064 10.9744 15.7805 11.0138C16.4455 8.08385 16.4045 5.03213 15.6612 2.12204C15.5314 1.65584 15.2824 1.23362 14.94 0.899062C14.5975 0.564502 14.1741 0.329741 13.7134 0.219058L13.2111 0.090878ZM18.2845 29.03H11.5481C10.5665 29.03 9.88713 28.8939 9.35399 28.7066C8.81315 28.5153 8.38009 28.2569 7.86043 27.9316L7.78344 27.8842C6.71524 27.2157 5.47766 26.4427 2.99097 26.1725C2.35004 26.1016 1.92469 25.6007 1.92469 25.0879V17.196C1.92469 16.6951 2.35967 16.1252 3.118 15.9142C5.22553 15.3226 6.92311 13.9501 8.14913 12.546C9.37131 11.1459 10.197 9.63733 10.5319 8.64541C10.9996 7.26501 11.3152 5.15892 11.4596 3.02521C11.5077 2.31135 12.1525 1.85385 12.7434 2.00372L13.2476 2.13387C13.5556 2.21275 13.7442 2.41587 13.8019 2.63673C14.588 5.7052 14.491 8.94111 13.5229 11.9544C13.4681 12.122 13.4582 12.3016 13.4944 12.4744C13.5306 12.6473 13.6115 12.8069 13.7285 12.9368C13.8456 13.0666 13.9946 13.1618 14.1598 13.2124C14.3251 13.263 14.5007 13.2671 14.6681 13.2244L14.6738 13.2224L14.7008 13.2165L14.8124 13.1889C15.4706 13.0461 16.1364 12.9427 16.8064 12.8793C18.0824 12.761 19.6107 12.7728 20.8675 13.2027C21.2043 13.3171 21.7336 13.7943 21.9645 14.4845C22.1705 15.0919 22.132 15.8057 21.4526 16.4999L20.7732 17.196L21.4526 17.8941C21.5353 17.9789 21.6547 18.1721 21.749 18.5153C21.8414 18.8446 21.8933 19.2449 21.8933 19.661C21.8933 20.0791 21.8414 20.4774 21.749 20.8087C21.6527 21.1518 21.5353 21.3451 21.4526 21.4299L20.7732 22.126L21.4526 22.8241C21.543 22.9168 21.6624 23.1731 21.4622 23.7864C21.255 24.3818 20.9232 24.9236 20.4902 25.3739L19.8108 26.07L20.4902 26.7681C20.5018 26.778 20.5691 26.8667 20.5691 27.1033C20.5579 27.3921 20.4779 27.6737 20.3363 27.9237C20.0187 28.4916 19.3681 29.03 18.2845 29.03Z" fill="white"/>
</svg>
