<svg width="25" height="32" viewBox="0 0 25 32" fill="none" xmlns="http://www.w3.org/2000/svg">
<path d="M13.7811 0.631894C11.9411 0.160586 10.232 1.58634 10.1088 3.43213C9.97025 5.5047 9.66615 7.40769 9.28506 8.53961C9.04447 9.24953 8.36313 10.5372 7.28338 11.7717C6.21133 13.0003 4.81593 14.0947 3.18187 14.5522C1.88848 14.9131 0.570068 16.0608 0.570068 17.737V25.627C0.570068 27.2933 1.88271 28.514 3.35702 28.6737C5.41643 28.8985 6.36723 29.4921 7.33727 30.0995L7.42966 30.1586C7.95317 30.484 8.54213 30.8449 9.29661 31.1131C10.0607 31.3813 10.9538 31.541 12.1182 31.541H18.8546C20.658 31.541 21.9322 30.6004 22.577 29.4428C22.8886 28.8966 23.057 28.277 23.0658 27.6443C23.0658 27.3446 23.0216 27.0291 22.9176 26.7293C23.3045 26.2107 23.649 25.5895 23.8569 24.9526C24.0686 24.3018 24.1879 23.4499 23.8646 22.6867C23.9974 22.4304 24.0955 22.1563 24.1706 21.892C24.3188 21.3596 24.3881 20.7719 24.3881 20.202C24.3881 19.6341 24.3188 19.0484 24.1706 18.514C24.1048 18.2678 24.0159 18.0287 23.905 17.8001C24.242 17.3088 24.4588 16.7418 24.5372 16.1467C24.6156 15.5516 24.5532 14.9459 24.3554 14.3807C23.9589 13.2133 23.0427 12.2115 22.0457 11.8723C20.4155 11.3162 18.5755 11.328 17.2032 11.4562C16.9183 11.4826 16.6341 11.5154 16.3506 11.5548C17.0156 8.62487 16.9746 5.57314 16.2313 2.66305C16.1015 2.19685 15.8525 1.77464 15.51 1.44008C15.1676 1.10552 14.7441 0.870757 14.2835 0.760074L13.7811 0.631894ZM16.5372 24.041V25.349C15.5556 25.349 14.9051 25.5363 14.372 25.349C13.8312 25.1577 10.4437 25.6744 9.92406 25.349L8.53722 26.041C7.46902 25.3725 6.04773 26.9837 3.56103 26.7136C2.92011 26.6426 2.49476 26.1417 2.49476 25.629V17.737C19.0372 19.5 2.92974 16.6662 3.68806 16.4552C5.7956 15.8636 7.49317 14.4911 8.7192 13.087C9.94138 11.6869 13.0372 11.4562 14.5372 13.041C15.0049 11.6606 12.8929 16.1747 13.0372 14.041C13.0853 13.3272 11.102 12.3237 13.3134 2.54473L10.2263 12.3237C10.5343 12.4026 16.2313 7.54102 14.372 3.17775C15.158 6.24622 8.25156 12.0122 7.28338 15.0255C7.22858 15.1931 17.1991 18.5395 14.5372 13.041C14.5734 13.2138 15.393 12.1939 15.51 12.3237C-1.06223 9.66962 1.40478 26.5813 1.57007 26.6319C1.73536 26.6825 24.2069 32.7538 21.8071 22.1918L23.2982 23.3651L22.0226 21.3497L22.223 21.6319C22.8813 21.4891 18.8546 11.8723 15.5 15C16.7761 14.8817 14.2532 17.6983 15.51 18.1282C15.8469 18.2426 16.9723 20.3508 17.2032 21.041C17.4092 21.6484 17.8826 14.3314 17.2032 15.0255L15.5372 21.041L19.0372 20.541C16.415 23.4556 19.9429 21.0066 20.0372 21.3497C20.1296 21.679 19.4004 22.949 19.4004 23.3651C19.4004 23.7832 20.6737 21.0184 20.5813 21.3497C20.4851 21.6929 22.1054 21.8861 22.0226 21.9709L21.3432 22.667L22.0226 23.3651C22.1131 23.4578 20.2374 21.3576 20.0372 21.9709C19.83 22.5663 21.4933 25.4646 21.0603 25.9149L20.3809 26.611L14.5372 24.541C14.5488 24.5509 14.5372 27.4077 14.5372 27.6443C7.77001 26.6319 21.048 28.2148 20.9063 28.4647C16.3741 25.3507 17.6208 24.041 16.5372 24.041Z" fill="white"/>
</svg>
