<svg width="30" height="30" viewBox="0 0 30 30" fill="none" xmlns="http://www.w3.org/2000/svg">
<path d="M25.7794 0.959531L26.0639 0.674948C26.2781 0.460875 26.5324 0.291087 26.8122 0.175279C27.092 0.0594713 27.3919 -8.85788e-05 27.6947 9.88773e-08C27.9975 8.87766e-05 28.2974 0.0598243 28.5771 0.175796C28.8568 0.291768 29.111 0.461704 29.3251 0.675903C29.5391 0.890102 29.7089 1.14437 29.8247 1.42419C29.9405 1.704 30.0001 2.00389 30 2.30672C29.9999 2.60956 29.9402 2.90941 29.8242 3.18916C29.7082 3.46891 29.5383 3.72307 29.3241 3.93715L29.0395 4.21982C29.5263 4.7658 29.7859 5.47732 29.7649 6.20852C29.744 6.93971 29.4441 7.6352 28.9269 8.15241L9.27026 27.8115C9.14738 27.9338 8.99355 28.0203 8.82526 28.0618L1.18569 29.9717C1.02582 30.0115 0.858366 30.0093 0.69961 29.9652C0.540854 29.9212 0.396196 29.8368 0.279697 29.7203C0.163198 29.6038 0.0788215 29.4591 0.0347691 29.3004C-0.00928336 29.1416 -0.011513 28.9741 0.028297 28.8143L1.93819 21.1745C1.97998 21.0068 2.06644 20.8537 2.18838 20.7314L20.6036 2.3156C20.4194 2.18597 20.1953 2.12561 19.971 2.14518C19.7466 2.16475 19.5364 2.26299 19.3774 2.42255L13.09 8.71203C13.0013 8.80082 12.8959 8.87125 12.7798 8.9193C12.6638 8.96735 12.5395 8.99209 12.4139 8.99209C12.2884 8.99209 12.164 8.96735 12.048 8.9193C11.932 8.87125 11.8266 8.80082 11.7378 8.71203C11.6491 8.62324 11.5786 8.51783 11.5306 8.40182C11.4825 8.28581 11.4578 8.16147 11.4578 8.0359C11.4578 7.91034 11.4825 7.786 11.5306 7.66999C11.5786 7.55398 11.6491 7.44857 11.7378 7.35978L18.029 1.07222C18.5466 0.55465 19.2425 0.254799 19.9742 0.234199C20.7058 0.213599 21.4176 0.473813 21.9634 0.961441C22.4882 0.492431 23.1672 0.233008 23.871 0.232656C24.5748 0.232304 25.2541 0.491046 25.7794 0.959531ZM24.5494 2.42255C24.3703 2.24352 24.1275 2.14295 23.8742 2.14295C23.621 2.14295 23.3782 2.24352 23.1991 2.42255L3.72394 21.8945L2.26478 27.7332L8.10332 26.274L27.5785 6.80207C27.6674 6.71337 27.738 6.60798 27.7861 6.49196C27.8342 6.37594 27.859 6.25156 27.859 6.12595C27.859 6.00034 27.8342 5.87596 27.7861 5.75994C27.738 5.64392 27.6674 5.53854 27.5785 5.44983L24.5494 2.42255Z" fill="black"/>
</svg>
