<svg width="40" height="39" viewBox="0 0 40 39" fill="none" xmlns="http://www.w3.org/2000/svg">
<path d="M20 19.4999C22.6522 19.4999 25.1957 18.4727 27.0711 16.6442C28.9464 14.8157 30 12.3358 30 9.74994C30 7.16408 28.9464 4.68413 27.0711 2.85565C25.1957 1.02717 22.6522 -6.10352e-05 20 -6.10352e-05C17.3478 -6.10352e-05 14.8043 1.02717 12.9289 2.85565C11.0536 4.68413 10 7.16408 10 9.74994C10 12.3358 11.0536 14.8157 12.9289 16.6442C14.8043 18.4727 17.3478 19.4999 20 19.4999ZM26.6667 9.74994C26.6667 11.4738 25.9643 13.1271 24.714 14.3461C23.4638 15.5651 21.7681 16.2499 20 16.2499C18.2319 16.2499 16.5362 15.5651 15.286 14.3461C14.0357 13.1271 13.3333 11.4738 13.3333 9.74994C13.3333 8.02603 14.0357 6.37273 15.286 5.15374C16.5362 3.93476 18.2319 3.24994 20 3.24994C21.7681 3.24994 23.4638 3.93476 24.714 5.15374C25.9643 6.37273 26.6667 8.02603 26.6667 9.74994ZM40 35.7499C40 38.9999 36.6667 38.9999 36.6667 38.9999H3.33333C3.33333 38.9999 0 38.9999 0 35.7499C0 32.4999 3.33333 22.7499 20 22.7499C36.6667 22.7499 40 32.4999 40 35.7499ZM36.6667 35.7369C36.6633 34.9374 36.1533 32.5324 33.8933 30.3289C31.72 28.2099 27.63 25.9999 20 25.9999C12.37 25.9999 8.28 28.2099 6.10667 30.3289C3.84667 32.5324 3.34 34.9374 3.33333 35.7369H36.6667Z" fill="#FF4473"/>
</svg>
