<svg width="218" height="189" viewBox="0 0 218 189" fill="none" xmlns="http://www.w3.org/2000/svg">
<path d="M106.97 6.61161C104.905 10.2625 101.754 15.6942 100.008 18.6995C98.2412 21.7048 96.1762 25.3556 95.3885 26.8249C94.6008 28.2941 92.9615 31.2549 91.7268 33.392C89.3424 37.5548 87.767 40.382 81.359 52.0247C79.1236 56.0762 77.2289 59.549 77.165 59.7494C77.0373 60.061 75.3768 60.1055 60.1338 60.1055H43.209L43.2729 62.4875L43.3367 64.8917L71.3105 64.9585C86.7025 64.9808 99.3695 64.9362 99.4547 64.8472C99.6037 64.6914 99.0502 61.6193 98.667 60.2391C98.5392 59.8384 98.2625 59.8384 90.343 59.9942C83.5092 60.1278 82.168 60.1055 82.2318 59.8607C82.2531 59.6826 83.9775 56.5882 86.0426 52.9819C88.1076 49.3756 90.7687 44.6562 91.9822 42.5191C93.1744 40.382 94.9414 37.2654 95.9207 35.6181C97.7941 32.3902 105.032 19.7013 108.588 13.379C109.78 11.2642 110.823 9.61689 110.929 9.70593C111.121 9.95081 116.06 18.232 117.252 20.3691C118.381 22.3949 125.257 34.6609 126.215 36.3972C126.62 37.1319 128.237 39.9368 129.77 42.6304C133.602 49.2865 139.223 59.3709 139.287 59.6826C139.329 59.8829 137.413 59.9497 131.324 59.9052L123.298 59.8384L123.064 60.8179C122.915 61.3522 122.638 62.4652 122.404 63.3334C122.191 64.1794 122 64.8917 122 64.8917C122 64.9362 177.777 64.8249 178.16 64.8027C178.352 64.7804 178.416 64.1571 178.416 62.443V60.1055H161.725C146.61 60.1055 145.035 60.061 144.907 59.7494C144.843 59.549 142.97 56.2321 140.777 52.3363C138.563 48.4629 135.731 43.4541 134.454 41.1834C133.177 38.9128 130.579 34.3492 128.685 31.0545C126.811 27.7376 123.809 22.4394 122.042 19.256C120.297 16.0727 117.678 11.5091 116.252 9.12714C114.825 6.74518 113.08 3.71764 112.356 2.40422C111.632 1.09081 110.972 0 110.908 0C110.823 0 109.056 2.98302 106.97 6.61161Z" fill="#FF4473"/>
<path d="M109.93 40.8714C109.057 41.3166 108.29 42.8971 108.482 43.8321C108.546 44.1883 108.95 44.8784 109.355 45.3681C109.866 46.0137 110.079 46.4812 110.079 47.0155C110.079 47.8837 109.908 48.0618 107.567 49.8427L106.012 51.0225L103.947 49.7314C102.819 48.9967 101.606 48.1508 101.265 47.8391L100.626 47.2604L101.201 46.548C102.266 45.2346 101.818 43.142 100.328 42.3851C99.0083 41.7395 97.3265 42.6523 96.8581 44.2773C96.6665 44.9674 96.6878 45.2346 96.9646 45.8134C97.3052 46.5035 98.2632 47.1936 98.8806 47.1936C99.0509 47.1936 99.2851 47.3717 99.4128 47.572C99.5831 47.9505 100.669 52.0911 102.521 59.5486C102.947 61.2627 103.394 63.0436 103.5 63.4888L103.713 64.3348H110.824H117.934L118.232 63.1549C118.424 62.5316 119.382 58.8808 120.404 55.0963C122.49 47.2381 122.511 47.1936 122.98 47.1936C123.533 47.1936 124.491 46.5035 124.747 45.9247C125.598 43.9657 124.215 42.0735 122.128 42.3629C120.446 42.6077 119.765 44.4777 120.659 46.4144C121 47.1713 121 47.2158 120.595 47.7724C120.234 48.2844 116.401 50.978 116.061 50.978C115.891 50.978 113.08 48.8632 112.484 48.2621C111.739 47.5275 111.824 46.4367 112.74 45.3904C113.378 44.6558 113.485 44.3664 113.485 43.4314C113.485 42.1625 112.953 41.2943 111.867 40.8268C110.973 40.4261 110.781 40.4484 109.93 40.8714Z" fill="#FF4473"/>
<path d="M62.177 71.3472C60.1759 72.015 58.7708 73.8405 58.2386 76.4896C57.8554 78.3595 57.7915 94.2541 58.1321 96.6138C58.8559 101.333 62.4112 103.804 66.6477 102.491C68.1593 102.023 69.7985 100.331 70.5011 98.506C71.012 97.1926 71.012 97.0813 71.012 89.3789C71.0333 76.2892 70.9055 75.1761 69.2024 73.1504C67.6696 71.3472 64.5614 70.5458 62.177 71.3472ZM66.2858 75.0203C66.7755 75.4433 67.0948 76.0221 67.2438 76.6231C67.3929 77.2242 67.478 81.2312 67.478 87.1305C67.4993 96.035 67.4567 96.7473 67.0948 97.6378C66.0516 100.087 63.0073 100.109 61.9641 97.6601C61.5809 96.7919 61.5384 96.1018 61.5384 86.7743C61.5384 80.5411 61.6235 76.6009 61.7512 76.2224C61.879 75.9108 62.2622 75.3542 62.6241 74.998C63.1776 74.4415 63.4544 74.3525 64.4337 74.3525C65.3917 74.3525 65.6897 74.4638 66.2858 75.0203Z" fill="#FF4473"/>
<path d="M93.5786 71.2136C91.8754 71.6811 90.4917 72.9277 89.6827 74.7532C89.044 76.2224 88.7885 79.7174 88.8098 86.5739C88.8311 94.076 89.0653 97.2371 89.7678 98.8399C91.8967 103.782 98.2835 104.272 101.051 99.7081C102.094 97.9495 102.201 96.8809 102.201 87.5757C102.201 82.8118 102.094 78.1814 101.988 77.2687C101.647 74.5751 100.71 73.0168 98.6454 71.7479C97.8364 71.2581 97.368 71.1468 95.9417 71.1023C94.9836 71.0578 93.9405 71.1023 93.5786 71.2136ZM97.1977 74.8422C98.4538 75.8662 98.4751 75.9775 98.5389 86.8188L98.6028 96.7251L98.1131 97.7268C97.1764 99.619 95.1752 99.9975 93.7702 98.5282C92.6844 97.3929 92.5993 96.4579 92.6631 86.0174C92.727 77.4023 92.7483 76.6231 93.1315 75.844C93.6211 74.7977 94.345 74.3747 95.6223 74.3525C96.3249 74.3525 96.7719 74.486 97.1977 74.8422Z" fill="#FF4473"/>
<path d="M155.296 71.4143C152.55 72.4383 151.485 74.286 151.145 78.6269C150.825 82.5672 151.017 95.7014 151.421 97.2819C152.358 100.977 154.359 102.714 157.659 102.714C159.724 102.714 160.938 102.179 162.194 100.755C163.428 99.3522 163.961 97.6381 164.003 94.9445L164.046 92.7184H162.407C161.491 92.7184 160.746 92.7184 160.725 92.7184C160.725 92.7184 160.661 93.6088 160.618 94.7219C160.469 97.1929 160.278 97.9275 159.49 98.7066C158.979 99.2409 158.681 99.33 157.744 99.33C156.467 99.3077 155.764 98.8847 155.104 97.7049C154.7 96.9703 154.679 96.5918 154.721 86.8191C154.785 75.4436 154.764 75.4881 156.275 74.5977C157.212 74.0634 157.978 73.9966 158.787 74.4418C160.171 75.1987 160.746 76.4899 160.746 78.8496V80.3856L162.407 80.3188L164.046 80.252L164.025 78.1149C163.982 74.9093 162.981 72.8613 160.895 71.7482C159.426 70.9691 156.893 70.8132 155.296 71.4143Z" fill="#FF4473"/>
<path d="M43.5072 71.3694C43.2943 71.4585 43.2305 74.7309 43.2305 86.5961C43.2305 94.8996 43.2943 101.845 43.3582 102.045C43.4646 102.335 43.8266 102.402 45.1891 102.402H46.8922L46.8496 96.3243C46.8283 93.0074 46.8283 90.1134 46.8283 89.9131C46.8496 89.5792 47.2115 89.5346 49.3617 89.4679C51.6396 89.3788 51.9377 89.3343 52.8744 88.7555C53.9602 88.0876 54.7053 87.0636 55.2801 85.4831C55.5781 84.6817 55.6633 83.7244 55.6633 80.4743C55.6633 76.8234 55.6207 76.3559 55.1736 75.1761C54.535 73.4842 53.8963 72.7273 52.4486 71.9705C51.299 71.3917 51.0861 71.3694 47.5096 71.3026C45.4445 71.2804 43.635 71.3026 43.5072 71.3694ZM51.0648 75.1984C52.0229 75.933 52.2145 76.8457 52.1932 80.6969C52.1719 84.281 52.0654 84.9265 51.299 85.6834C50.8732 86.0841 50.5539 86.1509 48.8508 86.1509H46.8922L46.807 84.9711C46.6367 82.834 46.6154 74.8867 46.7857 74.7086C46.8709 74.6196 47.7225 74.575 48.6805 74.6196C50.0217 74.6863 50.5539 74.8199 51.0648 75.1984Z" fill="#FF4473"/>
<path d="M105.224 84.8598C105.246 92.3619 105.288 99.3742 105.352 100.443L105.416 102.357L106.204 102.446C106.629 102.469 109.035 102.491 111.526 102.446L116.039 102.379V100.71V99.0626H112.42H108.801V87.3086C108.801 80.8528 108.737 74.5974 108.652 73.3953L108.524 71.2359H106.863H105.182L105.224 84.8598Z" fill="#FF4473"/>
<path d="M118.807 86.8192V102.447L122.49 102.358C126.811 102.224 127.897 101.935 129.43 100.488C130.665 99.33 131.559 97.3933 131.814 95.3007C132.07 93.2304 132.048 79.1167 131.793 77.692C131.303 74.9761 129.962 72.9726 128.004 71.9709C126.833 71.3921 126.62 71.3698 122.809 71.2808L118.807 71.1917V86.8192ZM126.492 75.1542C128.28 76.245 128.429 77.3804 128.344 87.91L128.28 95.835L127.748 96.9481C127.024 98.4841 125.917 99.0629 123.767 99.0629H122.213V86.7969V74.5087L124.022 74.62C125.215 74.709 126.045 74.8871 126.492 75.1542Z" fill="#FF4473"/>
<path d="M134.943 71.3695C134.858 71.4363 134.837 77.2242 134.9 84.2365C134.964 94.8552 135.049 97.1481 135.326 98.1498C135.88 100.176 136.689 101.266 138.285 102.135C139.222 102.647 139.605 102.713 141.394 102.736C143.246 102.736 143.544 102.669 144.672 102.068C145.46 101.645 146.205 101.044 146.631 100.443C147.972 98.5951 147.972 98.5728 147.972 84.2142V71.2359H146.269H144.566V84.0362C144.566 97.905 144.587 97.7046 143.395 98.8399C142.65 99.5746 140.861 99.6191 139.946 98.929C138.583 97.8827 138.605 98.2166 138.562 84.1252L138.498 71.3472L136.795 71.2804C135.837 71.2582 135.007 71.2804 134.943 71.3695Z" fill="#FF4473"/>
<path d="M167.026 74.7754C166.92 76.6899 166.92 83.1456 167.005 89.1562C167.069 95.1445 167.133 100.599 167.133 101.222V102.402H172.668H178.203V100.732V99.0625H174.371H170.539L170.581 93.7643L170.645 88.4884L173.796 88.4216L176.925 88.3548V86.7075V85.0379H173.775H170.624L170.645 79.851V74.6863L174.328 74.6196L177.99 74.575V72.95V71.3471L172.583 71.3249L167.175 71.2804L167.026 74.7754Z" fill="#FF4473"/>
<path d="M98.1213 107.969C98.0574 108.035 85.1988 108.08 69.5514 108.08C45.1541 108.08 41.0666 108.124 40.8111 108.414C40.6408 108.592 39.1719 111.018 37.5752 113.801C35.9572 116.584 32.1252 123.173 29.0596 128.449C25.9939 133.703 22.5238 139.669 21.3529 141.695C20.182 143.72 16.9035 149.33 14.0508 154.161C11.198 158.992 6.85508 166.405 4.42812 170.634L0 178.314V183.657V189H109H218V183.791V178.582L214.253 171.881C209.037 162.576 201.203 148.952 193.518 135.907C190.495 130.764 186.322 123.574 180.063 112.822L177.317 108.102L174.294 108.035C168.844 107.924 98.2277 107.857 98.1213 107.969ZM174.655 113C174.698 113.044 176.103 115.448 177.764 118.32C179.445 121.192 181.638 124.954 182.66 126.668C183.682 128.382 186.875 133.836 189.771 138.801C192.666 143.765 195.561 148.662 196.157 149.709C198.521 153.671 204.63 164.245 206.972 168.408C208.335 170.79 210.826 175.22 212.55 178.248C214.253 181.253 215.658 183.813 215.658 183.924C215.658 184.013 167.694 184.08 109.064 184.036C42.6846 183.991 2.46953 183.88 2.49082 183.768C2.5334 183.635 3.47012 181.965 4.59844 180.051C5.72676 178.114 8.15371 173.973 9.96328 170.857C11.7729 167.74 14.7107 162.731 16.499 159.726C18.2873 156.721 21.2465 151.623 23.0986 148.373C24.9508 145.123 27.5268 140.671 28.8041 138.467C30.1027 136.263 32.2316 132.612 33.5303 130.341C34.8289 128.071 36.8514 124.62 38.0223 122.661C39.1932 120.702 40.8963 117.786 41.8117 116.183L43.4936 113.245L45.218 113.133C46.176 113.066 74.235 113 107.616 112.977C140.976 112.955 168.333 112.888 168.396 112.822C168.503 112.71 174.549 112.866 174.655 113Z" fill="#FF4473"/>
<path d="M112.419 118.252C110.439 118.497 106.862 119.721 105.01 120.812C95.3447 126.333 89.767 138.732 90.9166 152.156C91.4488 158.656 93.1094 163.954 96.0898 168.718C100.816 176.265 107.99 180.205 116.996 180.183C120.338 180.183 121.615 179.982 124.426 179.07C130.663 176.999 136.241 171.634 139.243 164.867C141.585 159.591 142.5 155.072 142.5 148.817C142.521 145.077 142.457 144.275 141.946 141.782C140.563 134.903 138.114 129.783 134.197 125.531C130.493 121.524 125.703 118.92 120.657 118.23C118.699 117.94 114.675 117.962 112.419 118.252ZM119.955 128.359C125.341 129.828 129.45 134.614 131.132 141.47C132.771 148.06 132.047 155.963 129.301 161.84C128.471 163.576 127.981 164.288 126.469 165.869C125 167.427 124.319 167.961 122.85 168.718C120.402 169.965 118.699 170.388 116.251 170.388C112.695 170.41 109.757 169.052 107.011 166.158C104.18 163.175 102.86 160.014 101.859 153.848C101.327 150.664 101.54 145.144 102.285 142.094C104.158 134.614 108.076 129.65 113.185 128.359C114.909 127.913 118.337 127.913 119.955 128.359Z" fill="#FF4473"/>
<path d="M63.0506 118.452C58.5799 119.365 54.1943 121.992 51.6396 125.242C49.7023 127.735 47.9141 132.433 47.9141 135.037V136.239L50.6391 136.261C52.1293 136.284 54.1518 136.328 55.1098 136.373C57.5154 136.462 57.8135 136.306 58.1115 134.904C58.4521 133.301 58.9844 132.299 60.283 130.919C61.901 129.205 63.6254 128.403 65.7543 128.381C68.0322 128.359 68.9689 128.693 70.3527 130.028C71.7578 131.364 72.801 133.39 72.9713 135.148C73.2693 138.354 71.3107 142.072 63.6254 152.824C59.6869 158.345 50.49 170.856 48.9359 172.815L47.9141 174.106V177V179.871L66.1801 179.827L84.4248 179.76L84.4887 173.883C84.51 170.633 84.4674 167.917 84.3609 167.806C84.1055 167.539 78.2297 167.338 76.782 167.561L75.5473 167.739L75.5047 169.453L75.4834 171.167L69.1605 171.256C64.626 171.323 62.8803 171.279 62.9654 171.1C63.4551 170.232 70.6295 160.014 78.3148 149.262C81.7211 144.476 83.1049 141.092 83.3816 136.684C83.85 129.895 80.2096 123.061 74.6531 120.233C71.3746 118.586 66.2439 117.785 63.0506 118.452Z" fill="#FF4473"/>
<path d="M156.637 118.697C156.105 119.61 152.166 126.956 151.315 128.603C150.868 129.494 150.57 130.317 150.634 130.451C150.719 130.585 152.06 130.674 153.955 130.674H157.127V150.709V170.722L154.636 170.789L152.124 170.855L152.06 175.263L152.017 179.649L155.998 179.671C159.788 179.693 172.583 179.671 172.945 179.649C173.03 179.649 173.072 177.667 173.051 175.241L172.987 170.855H170.858C169.687 170.855 168.559 170.811 168.367 170.789C168.005 170.744 167.984 169.275 167.942 144.52L167.878 118.319L162.406 118.252L156.935 118.207L156.637 118.697Z" fill="#FF4473"/>
<path d="M77.9134 71.4339L75.2383 71.5296L75.3791 79.8079C75.4729 84.3538 75.5433 91.2444 75.5433 95.1204V102.131H77.5379H79.5326V95.4315V88.7322H82.4658H85.399V86.5789V84.4256H82.4658H79.5326V79.8797V75.3577L83.1228 75.2859L86.6897 75.2142L86.7601 73.7786C86.9009 71.1707 87.0182 71.2664 83.5687 71.3143C81.9261 71.3382 79.3918 71.41 77.9134 71.4339Z" fill="#FF4473"/>
</svg>
