<svg width="32" height="30" viewBox="0 0 32 30" fill="none" xmlns="http://www.w3.org/2000/svg">
<path d="M15 0.5H17C25.0081 0.5 31.5 6.99187 31.5 15C31.5 23.0081 25.0081 29.5 17 29.5H15C6.99187 29.5 0.5 23.0081 0.5 15C0.5 6.99187 6.99187 0.5 15 0.5Z" fill="white" stroke="#FF4473"/>
<path d="M16.184 23.3478C16.7284 23.3478 17.2505 23.1325 17.6354 22.7493C18.0203 22.3661 18.2366 21.8464 18.2366 21.3045H14.1314C14.1314 21.8464 14.3477 22.3661 14.7326 22.7493C15.1175 23.1325 15.6396 23.3478 16.184 23.3478ZM17.2052 8.12372C17.2195 7.98166 17.2037 7.83819 17.1589 7.70256C17.1141 7.56693 17.0413 7.44215 16.9451 7.33627C16.8489 7.23039 16.7314 7.14576 16.6003 7.08784C16.4693 7.02992 16.3274 7 16.184 7C16.0406 7 15.8988 7.02992 15.7677 7.08784C15.6366 7.14576 15.5191 7.23039 15.4229 7.33627C15.3267 7.44215 15.2539 7.56693 15.2091 7.70256C15.1643 7.83819 15.1485 7.98166 15.1629 8.12372C14.0027 8.35825 12.9597 8.98492 12.2105 9.8975C11.4614 10.8101 11.0523 11.9525 11.0526 13.131C11.0526 14.2528 10.5394 19.2611 9 20.2828H23.368C21.8286 19.2611 21.3154 14.2528 21.3154 13.131C21.3154 10.6585 19.5502 8.59472 17.2052 8.12372Z" fill="#FF4473"/>
</svg>
